<svg width="12" height="12" viewBox="0 0 12 12" fill="none" xmlns="http://www.w3.org/2000/svg">
<g clip-path="url(#clip0_268_8531)">
<path d="M11.4528 12C11.3809 12.0002 11.3096 11.9862 11.2432 11.9588C11.1767 11.9314 11.1163 11.8911 11.0655 11.8403L0.159423 0.934143C0.0567208 0.831441 -0.000976564 0.692147 -0.000976562 0.546905C-0.000976561 0.401662 0.0567208 0.262369 0.159423 0.159667C0.262125 0.0569649 0.401418 -0.00073242 0.546661 -0.000732422C0.691903 -0.000732423 0.831197 0.0569649 0.933899 0.159667L11.84 11.0658C11.9418 11.169 11.9989 11.3081 11.9989 11.453C11.9989 11.598 11.9418 11.7371 11.84 11.8403C11.7892 11.8911 11.7288 11.9314 11.6624 11.9588C11.5959 11.9862 11.5247 12.0002 11.4528 12Z" fill="#FBC466"/>
<path d="M0.547105 12C0.475213 12.0002 0.403983 11.9862 0.337522 11.9588C0.27106 11.9314 0.210682 11.8911 0.159867 11.8403C0.0580585 11.7371 0.000976562 11.598 0.000976562 11.453C0.000976562 11.3081 0.0580585 11.169 0.159867 11.0658L11.066 0.159667C11.1687 0.0569649 11.308 -0.000732422 11.4532 -0.000732422C11.5985 -0.000732422 11.7377 0.0569649 11.8405 0.159667C11.9432 0.262369 12.0008 0.401662 12.0008 0.546905C12.0008 0.692147 11.9432 0.831441 11.8405 0.934143L0.934343 11.8403C0.883528 11.8911 0.823149 11.9314 0.756688 11.9588C0.690226 11.9862 0.618996 12.0002 0.547105 12Z" fill="#FBC466"/>
</g>
<defs>
<clipPath id="clip0_268_8531">
<rect width="12" height="12" fill="white"/>
</clipPath>
</defs>
</svg>
