<svg width="18" height="19" viewBox="0 0 18 19" fill="none" xmlns="http://www.w3.org/2000/svg">
<path d="M2.83107 12.6083C2.27091 12.6088 1.7232 12.443 1.25726 12.1321C0.791315 11.8212 0.428076 11.379 0.213507 10.8616C-0.00106338 10.3441 -0.057321 9.77469 0.0518525 9.22527C0.161026 8.67585 0.430724 8.17116 0.826819 7.77506C1.22291 7.37897 1.7276 7.10927 2.27702 7.00009C2.82644 6.89092 3.3959 6.94718 3.91334 7.16175C4.43078 7.37632 4.87294 7.73956 5.18387 8.2055C5.49481 8.67144 5.66054 9.21915 5.66009 9.77931C5.65891 10.5293 5.36047 11.2481 4.83018 11.7784C4.29989 12.3087 3.58101 12.6071 2.83107 12.6083ZM2.83107 7.84544C2.44849 7.84499 2.07437 7.95803 1.75605 8.17026C1.43773 8.38249 1.18952 8.68436 1.0428 9.03769C0.896087 9.39102 0.857469 9.77993 0.931835 10.1552C1.0062 10.5305 1.19021 10.8753 1.46057 11.146C1.73094 11.4167 2.07552 11.6011 2.45072 11.6759C2.82592 11.7507 3.21487 11.7125 3.56837 11.5662C3.92187 11.4199 4.22403 11.172 4.43663 10.8539C4.64922 10.5359 4.7627 10.1619 4.7627 9.77931C4.76033 9.26815 4.55592 8.77867 4.19405 8.41765C3.83219 8.05662 3.34223 7.85334 2.83107 7.85217V7.84544Z" fill="#7A6C73"/>
<path d="M14.4521 5.66026C13.8916 5.66204 13.3432 5.49744 12.8764 5.18732C12.4096 4.8772 12.0453 4.43551 11.8297 3.91819C11.6141 3.40087 11.5569 2.8312 11.6653 2.28134C11.7737 1.73148 12.0429 1.22616 12.4387 0.829388C12.8345 0.432619 13.3392 0.162251 13.8888 0.0525303C14.4384 -0.0571906 15.0082 -0.00132821 15.526 0.213042C16.0439 0.427412 16.4864 0.790644 16.7977 1.25673C17.1089 1.72282 17.2748 2.27079 17.2744 2.83124C17.2732 3.58002 16.9757 4.29789 16.4468 4.82798C15.918 5.35808 15.2008 5.6573 14.4521 5.66026ZM14.4521 0.897363C14.0692 0.895586 13.6944 1.00749 13.3752 1.21891C13.056 1.43032 12.8068 1.73173 12.659 2.08494C12.5113 2.43815 12.4717 2.82726 12.5453 3.20299C12.6189 3.57871 12.8024 3.92414 13.0725 4.19549C13.3425 4.46685 13.6871 4.65193 14.0625 4.72727C14.4379 4.80262 14.8272 4.76485 15.1811 4.61875C15.535 4.47265 15.8375 4.22479 16.0504 3.90657C16.2633 3.58835 16.377 3.21411 16.377 2.83124C16.3764 2.32007 16.1737 1.82988 15.8131 1.46759C15.4525 1.10531 14.9632 0.900324 14.4521 0.897363Z" fill="#7A6C73"/>
<path d="M14.4521 19C13.8916 19.0018 13.3432 18.8372 12.8764 18.527C12.4096 18.2169 12.0453 17.7752 11.8297 17.2579C11.6141 16.7406 11.5569 16.1709 11.6653 15.6211C11.7737 15.0712 12.0429 14.5659 12.4387 14.1691C12.8345 13.7723 13.3392 13.502 13.8888 13.3923C14.4384 13.2825 15.0082 13.3384 15.526 13.5528C16.0439 13.7671 16.4864 14.1304 16.7977 14.5965C17.1089 15.0625 17.2748 15.6105 17.2744 16.171C17.2738 16.9199 16.9764 17.6381 16.4475 18.1684C15.9185 18.6986 15.201 18.9976 14.4521 19ZM14.4521 14.2371C14.0692 14.2353 13.6944 14.3472 13.3752 14.5586C13.056 14.77 12.8068 15.0714 12.659 15.4247C12.5113 15.7779 12.4717 16.167 12.5453 16.5427C12.6189 16.9184 12.8024 17.2639 13.0725 17.5352C13.3425 17.8066 13.6871 17.9916 14.0625 18.067C14.4379 18.1423 14.8272 18.1046 15.1811 17.9585C15.535 17.8124 15.8375 17.5645 16.0504 17.2463C16.2633 16.9281 16.377 16.5538 16.377 16.171C16.3764 15.6598 16.1737 15.1696 15.8131 14.8073C15.4525 14.445 14.9632 14.24 14.4521 14.2371Z" fill="#7A6C73"/>
<path d="M12.1549 3.3737L4.73389 7.93201L5.20357 8.69667L12.6246 4.13836L12.1549 3.3737Z" fill="#7A6C73"/>
<path d="M4.75387 10.2994L4.28418 11.0641L11.7052 15.6224L12.1749 14.8577L4.75387 10.2994Z" fill="#7A6C73"/>
</svg>
