<svg width="16" height="21" viewBox="0 0 16 21" fill="none" xmlns="http://www.w3.org/2000/svg">
<g clip-path="url(#clip0_264_5923)">
<path d="M1.20028 21C1.02118 20.9989 0.844516 20.9568 0.682854 20.8769C0.477699 20.777 0.304391 20.6183 0.183395 20.4196C0.0623987 20.2209 -0.00123159 19.9904 1.80588e-05 19.7554V5.33465C0.000578817 4.55548 0.299181 3.80835 0.830315 3.25718C1.36145 2.70601 2.08174 2.39582 2.83315 2.39465H8.77086C8.88334 2.39465 8.99122 2.44099 9.07076 2.52346C9.1503 2.60594 9.19498 2.7178 9.19498 2.83444C9.19498 2.95108 9.1503 3.06295 9.07076 3.14542C8.99122 3.2279 8.88334 3.27423 8.77086 3.27423H2.83315C2.30653 3.27482 1.80167 3.49215 1.42949 3.87849C1.05732 4.26483 0.848262 4.78858 0.848262 5.33465V19.7554C0.848301 19.8239 0.867066 19.8911 0.902384 19.949C0.937702 20.007 0.988127 20.0533 1.04782 20.0828C1.10751 20.1123 1.17403 20.1236 1.23967 20.1154C1.30531 20.1073 1.36738 20.0801 1.41871 20.0369L6.08405 16.1117C6.31307 15.9208 6.59812 15.8167 6.892 15.8167C7.18587 15.8167 7.47093 15.9208 7.69995 16.1117L12.3653 20.0369C12.4166 20.0801 12.4787 20.1073 12.5443 20.1154C12.61 20.1236 12.6765 20.1123 12.7362 20.0828C12.7959 20.0533 12.8463 20.007 12.8816 19.949C12.9169 19.8911 12.9357 19.8239 12.9357 19.7554V7.48963C12.9357 7.37299 12.9804 7.26113 13.06 7.17865C13.1395 7.09617 13.2474 7.04984 13.3599 7.04984C13.4723 7.04984 13.5802 7.09617 13.6598 7.17865C13.7393 7.26113 13.784 7.37299 13.784 7.48963V19.7554C13.7837 19.99 13.7193 20.2197 13.5984 20.418C13.4774 20.6163 13.3047 20.775 13.1004 20.8758C12.8961 20.9765 12.6684 21.0152 12.4437 20.9874C12.2191 20.9596 12.0066 20.8664 11.8309 20.7185L7.16556 16.7956C7.08919 16.7292 6.99272 16.6928 6.89306 16.6928C6.7934 16.6928 6.69693 16.7292 6.62056 16.7956L1.95522 20.7185C1.74259 20.9002 1.47577 20.9996 1.20028 21Z" fill="#7A6C73"/>
<path d="M10.6898 6.02076H3.07891C2.96642 6.02076 2.85855 5.97442 2.77901 5.89194C2.69947 5.80947 2.65479 5.6976 2.65479 5.58096C2.65479 5.46433 2.69947 5.35246 2.77901 5.26999C2.85855 5.18751 2.96642 5.14117 3.07891 5.14117H10.6898C10.8023 5.14117 10.9101 5.18751 10.9897 5.26999C11.0692 5.35246 11.1139 5.46433 11.1139 5.58096C11.1139 5.6976 11.0692 5.80947 10.9897 5.89194C10.9101 5.97442 10.8023 6.02076 10.6898 6.02076Z" fill="#7A6C73"/>
<path d="M15.5758 3.2984H10.9231C10.8107 3.2984 10.7028 3.25207 10.6232 3.16959C10.5437 3.08712 10.499 2.97525 10.499 2.85861C10.499 2.74197 10.5437 2.63011 10.6232 2.54763C10.7028 2.46516 10.8107 2.41882 10.9231 2.41882H15.5758C15.6882 2.41882 15.7961 2.46516 15.8757 2.54763C15.9552 2.63011 15.9999 2.74197 15.9999 2.85861C15.9999 2.97525 15.9552 3.08712 15.8757 3.16959C15.7961 3.25207 15.6882 3.2984 15.5758 3.2984Z" fill="#7A6C73"/>
<path d="M13.2498 5.70408C13.1373 5.70408 13.0294 5.65775 12.9499 5.57527C12.8704 5.4928 12.8257 5.38093 12.8257 5.26429V0.439791C12.8257 0.323151 12.8704 0.211288 12.9499 0.128812C13.0294 0.0463349 13.1373 0 13.2498 0C13.3623 0 13.4702 0.0463349 13.5497 0.128812C13.6292 0.211288 13.6739 0.323151 13.6739 0.439791V5.26429C13.6739 5.38093 13.6292 5.4928 13.5497 5.57527C13.4702 5.65775 13.3623 5.70408 13.2498 5.70408Z" fill="#7A6C73"/>
</g>
<defs>
<clipPath id="clip0_264_5923">
<rect width="16" height="21" fill="white"/>
</clipPath>
</defs>
</svg>
